<?xml version="1.0" encoding="UTF-8"?>
<svg version="1.1" xmlns="http://www.w3.org/2000/svg" width="256" height="256">
<path d="M0 0 C23.84361023 18.90814965 39.24744211 44.40239313 42.98046875 74.77734375 C43.25839365 79.03224159 43.3152955 83.26421073 43.29296875 87.52734375 C43.2873291 88.66478027 43.28168945 89.8022168 43.27587891 90.97412109 C42.86044279 119.91891284 30.60882266 146.24744712 10.35546875 166.71484375 C-1.04666941 177.77734375 -1.04666941 177.77734375 -5.01953125 177.77734375 C-5.02499969 176.85558601 -5.02499969 176.85558601 -5.03057861 175.91520691 C-5.07264473 169.47377767 -5.14215678 163.03304505 -5.22705078 156.59204102 C-5.25513961 154.19367466 -5.27641376 151.79521782 -5.29052734 149.39672852 C-5.31212435 145.9332893 -5.35886176 142.4709244 -5.41015625 139.0078125 C-5.41199921 137.41962959 -5.41199921 137.41962959 -5.41387939 135.79936218 C-5.64620344 123.77908453 -9.53578831 114.46670221 -17.8671875 105.87109375 C-24.91754082 99.25525524 -32.62096692 96.46597469 -42.01953125 94.77734375 C-41.35953125 94.13796875 -40.69953125 93.49859375 -40.01953125 92.83984375 C-39.01621186 91.82227267 -38.01673146 90.80091223 -37.01953125 89.77734375 C-36.38015625 89.13410156 -35.74078125 88.49085938 -35.08203125 87.828125 C-26.4792798 78.75287395 -22.23602316 68.35392713 -21.953125 55.83984375 C-22.38766744 45.72685604 -26.12359441 36.90967043 -32.01953125 28.77734375 C-32.34953125 28.03484375 -32.67953125 27.29234375 -33.01953125 26.52734375 C-34.32574719 24.24146585 -35.66825105 23.92583763 -38.01953125 22.77734375 C-39.42525066 21.81242354 -40.820618 20.83230351 -42.20703125 19.83984375 C-46.62367227 16.85661011 -50.88827592 15.13353352 -56.01953125 13.77734375 C-56.82390625 13.55046875 -57.62828125 13.32359375 -58.45703125 13.08984375 C-71.18035336 11.5382191 -82.60272302 14.18710777 -93.01953125 21.77734375 C-93.56480469 22.33421875 -94.11007813 22.89109375 -94.671875 23.46484375 C-96.01953125 24.77734375 -96.01953125 24.77734375 -98.01953125 24.77734375 C-98.28894531 25.35097656 -98.55835937 25.92460938 -98.8359375 26.515625 C-100.04627205 28.82844251 -101.43860017 30.84367666 -102.95703125 32.96484375 C-109.04019299 42.08958636 -110.98277653 52.27779119 -109.58203125 63.18359375 C-106.78996687 76.7631796 -99.6664403 85.21637598 -90.01953125 94.77734375 C-91.08171875 95.06867188 -92.14390625 95.36 -93.23828125 95.66015625 C-104.5888037 98.89072297 -104.5888037 98.89072297 -114.01953125 105.77734375 C-114.95345703 106.69 -114.95345703 106.69 -115.90625 107.62109375 C-122.40267279 114.48523859 -126.06073182 122.44091946 -126.22485352 131.91308594 C-126.25477135 133.44422028 -126.25477135 133.44422028 -126.28529358 135.00628662 C-126.31036232 136.64866302 -126.31036232 136.64866302 -126.3359375 138.32421875 C-126.3567186 139.45055725 -126.37749969 140.57689575 -126.39891052 141.73736572 C-126.46427458 145.33396324 -126.5232301 148.93063352 -126.58203125 152.52734375 C-126.62522895 154.96615335 -126.66884365 157.40495559 -126.71289062 159.84375 C-126.81994255 165.82153775 -126.92173342 171.79939782 -127.01953125 177.77734375 C-131.64049778 176.08669862 -134.73973003 173.63848553 -138.26953125 170.27734375 C-138.84018311 169.73907959 -139.41083496 169.20081543 -139.9987793 168.64624023 C-160.41831644 149.18606803 -174.46560724 123.13862517 -175.3203125 94.48046875 C-175.63012103 60.47182269 -165.87372354 33.4874742 -142.33203125 8.71484375 C-103.99115377 -28.56265038 -42.69199494 -31.42528476 0 0 Z " fill="#E04A19" transform="translate(194.01953125,40.22265625)"/>
<path d="M0 0 C1.54269058 -0.00855011 1.54269058 -0.00855011 3.11654663 -0.01727295 C5.29008972 -0.02669799 7.46364694 -0.03324698 9.63720703 -0.03710938 C12.92897129 -0.04678108 16.22010168 -0.07781493 19.51171875 -0.109375 C47.60208491 -0.252888 47.60208491 -0.252888 58.3359375 9.203125 C65.10632143 16.50801292 68.47328531 24.65439067 68.44946289 34.63598633 C68.44934959 36.22706963 68.44934959 36.22706963 68.44923401 37.85029602 C68.44407272 38.9837999 68.43891144 40.11730377 68.43359375 41.28515625 C68.4321788 42.45447189 68.43076385 43.62378754 68.42930603 44.82853699 C68.42371543 48.55759251 68.41116459 52.28658767 68.3984375 56.015625 C68.39342129 58.54622309 68.38885859 61.07682212 68.38476562 63.60742188 C68.37374907 69.80601013 68.35702023 76.00456325 68.3359375 82.203125 C65.65751093 83.49256288 62.9762308 84.77538197 60.29296875 86.0546875 C59.54341919 86.4163501 58.79386963 86.7780127 58.02160645 87.15063477 C51.28299345 90.35289085 44.62082243 92.52539392 37.3359375 94.203125 C36.44777344 94.42742187 35.55960937 94.65171875 34.64453125 94.8828125 C10.56208084 100.00077139 -15.10745466 95.52190744 -36.85888672 84.61303711 C-38.2088826 83.93645302 -38.2088826 83.93645302 -39.58615112 83.24620056 C-40.27186188 82.90198563 -40.95757263 82.55777069 -41.6640625 82.203125 C-41.74051113 74.83828426 -41.79282911 67.47354695 -41.82885742 60.10839844 C-41.84388684 57.60608089 -41.864316 55.10378943 -41.89038086 52.6015625 C-41.92702128 48.99212175 -41.94384796 45.38303117 -41.95703125 41.7734375 C-41.97251511 40.66574005 -41.98799896 39.5580426 -42.00395203 38.41677856 C-42.00625633 27.63376987 -39.73729948 18.5377293 -32.6640625 10.203125 C-23.22752832 1.25502426 -12.51212545 0.05418672 0 0 Z " fill="#F76E16" transform="translate(114.6640625,140.796875)"/>
<path d="M0 0 C8.60753761 7.23465079 13.52310114 16.0699235 14.5625 27.23046875 C14.96791242 38.84806849 12.14628964 48.24757243 4.25 56.875 C-3.211777 64.72273098 -12.38202018 68.83391846 -23.25 69.1875 C-34.55848556 69.03559497 -43.69084688 64.772077 -51.6484375 57.02734375 C-59.79921262 48.37789252 -62.14434174 39.25635979 -62.0234375 27.61328125 C-61.31229215 17.89090844 -57.66141822 9.74684903 -50.75 2.875 C-35.99369177 -9.65808961 -16.11011887 -11.45307611 0 0 Z " fill="#E23A21" transform="translate(151.75,66.125)"/>
</svg>
